# xmcd
#
# Track frame offsets:
#	150
#	13767
#	29773
#	41707
#	54698
#	68649
#	85332
#	98026
#	111598
#	134304
#
# Disc length: 2048 seconds
# Revision: 0
# Processed by: cddbd v1.5.2PL0 Copyright (c) Steve Scherf et al.
# Submitted via: dBpowerAMP V12.0
#
DISCID=8d07fe0a
DTITLE=Various Artist - North Country
DYEAR=2019
DGENRE=Americana
TTITLE0=Danny Burns feat. Sam Bush and Jerry Douglas - Let It Go
TTITLE1=Danny Burns feat. Dan Tyminski - Waiting On Something To Give
TTITLE2=Danny Burns feat. Tim O'Brien - Great Big Sea
TTITLE3=Danny Burns feat. Sam Bush and Jerry Douglas - Down and Out
TTITLE4=Danny Burns feat. Holly Williams, Sam Bush, Jerry Douglas and  Critter Fuqua - Look Into Her Eyes
TTITLE5=Danny Burns feat. Cara Dillon - Amy
TTITLE6=Danny Burns feat. Mindy Smith and Chessboxer - Hummingbee
TTITLE7=Danny Burns feat. Tift Merritt - Human Heart
TTITLE8=Danny Burns feat. Tim O'Brien - Darling Roisin
TTITLE9=Danny Burns feat. Mindy Smith, Sam Bush, and Chessboxer - North Country
EXTD=
EXTT0=
EXTT1=
EXTT2=
EXTT3=
EXTT4=
EXTT5=
EXTT6=
EXTT7=
EXTT8=
EXTT9=
PLAYORDER=
